<?xml version="1.0" encoding="utf-8"?>
<!-- Generator: Adobe Illustrator 27.8.1, SVG Export Plug-In . SVG Version: 6.00 Build 0)  -->
<svg version="1.1" id="Warstwa_1" xmlns="http://www.w3.org/2000/svg" xmlns:xlink="http://www.w3.org/1999/xlink" x="0px" y="0px"
	 viewBox="0 0 360 103" style="enable-background:new 0 0 360 103;" xml:space="preserve">
<style type="text/css">
	.st0{fill:#23398A;}
</style>
<g>
	<path class="st0" d="M67.7,40.6c-1.9-1.6-5.6-4.1-9.7-4.4v13C59.9,46.6,62.9,43.3,67.7,40.6L67.7,40.6z"/>
	<path class="st0" d="M73.5,40.8c-7.7,2.8-11.8,7.6-13.7,10.6h22.5V38.3C80.2,38.6,77.4,39.4,73.5,40.8L73.5,40.8z"/>
	<path class="st0" d="M72.6,38.4c4.2-1.6,7.4-2.4,9.7-2.8v-7.5c-4.9,0.2-12.5,3.1-16.2,8.1c1.9,1.1,3.4,2.4,4.3,3.1
		C71,39,71.8,38.7,72.6,38.4L72.6,38.4z"/>
	<path class="st0" d="M52.5,41.5V28.1h-7l0,11.5c0,0,0,1.2,0,2c-0.2,4.5-3.7,5.3-5.9,5.3c0,0-0.1,0-0.1,0c-5.7-0.1-6.1-3.9-6.2-5.2
		c-0.1-0.7-0.1-1.9-0.1-1.9V28.1h-6.9v13.4c0,3.6,1.2,6.5,3.5,8.5c2.3,2,5.5,3,9.7,3c4.1,0,7.3-1,9.7-3C51.3,48,52.5,45.1,52.5,41.5
		L52.5,41.5z M43,41.5c0-0.8,0-1.9,0-1.9l0-11.5h-7.3v11.7c0,0,0,1,0.1,1.6c0.1,1.3,0.3,2.9,3.7,3C42.5,44.4,42.9,43,43,41.5
		L43,41.5z"/>
	<path class="st0" d="M49,67.2c-0.1,0-0.1,0-0.2-0.1c1.1-0.5,2.1-1.1,2.7-1.8c0.8-0.9,1.2-1.9,1.2-3.1c0-1.7-0.9-3.1-2.8-4.3
		c-1.9-1.1-4.7-1.7-8.6-1.7H26.2V79h15.9c3.9,0,6.3-0.6,8.3-1.7c2-1.1,3-2.6,3-4.6c0-1.3-0.4-2.4-1.3-3.4
		C51.3,68.4,50.6,67.7,49,67.2L49,67.2z M43.1,73.8h-8.7v-2.6h8.7c0,0,1.3,0.1,1.2,1.3C44.3,73.7,43.1,73.8,43.1,73.8L43.1,73.8z
		 M43.1,63.9h-8.7v-2.6h8.7c0,0,1.4,0.2,1.3,1.4C44.4,63.8,43.1,63.9,43.1,63.9L43.1,63.9z"/>
	<path class="st0" d="M80.8,67.2c-0.1,0-0.1,0-0.2-0.1c1.1-0.5,2.1-1.1,2.7-1.8c0.8-0.9,1.2-1.9,1.2-3.1c0-1.7-0.9-3.1-2.8-4.3
		c-1.9-1.1-4.7-1.7-8.6-1.7H58.1V79h15.9c3.9,0,6.3-0.6,8.3-1.7c2-1.1,3-2.6,3-4.6c0-1.3-0.4-2.4-1.3-3.4
		C83.1,68.4,82.4,67.7,80.8,67.2L80.8,67.2z M74.9,73.8h-8.7v-2.6h8.7c0,0,1,0.2,1,1.3C76,73.6,74.9,73.8,74.9,73.8L74.9,73.8z
		 M74.9,63.9h-8.7v-2.6h8.7c0,0,1,0.4,1,1.4C76,63.7,74.9,63.9,74.9,63.9L74.9,63.9z"/>
	<path class="st0" d="M129,48.8c2-1.9,3-4.6,3-8.1V28h-7.7v12.5c0,1.8-0.3,3-0.9,3.7c-0.6,0.7-1.5,1.1-2.6,1.1
		c-1.1,0-1.9-0.4-2.6-1.1c-0.6-0.7-1-2-1-3.7V28h-7.8v12.7c0,3.5,1,6.1,3,8.1c2,1.9,4.7,2.9,8.3,2.9C124.3,51.6,127,50.7,129,48.8
		L129,48.8z M144.5,33.7c-1.2,0.7-2.2,1.7-2.9,3.1l1.4,1.5v-5.3H136v18.1h7.5v-8.5c0-0.9,0.1-1.6,0.4-2.1c0.3-0.5,0.6-0.9,1-1.1
		c0.4-0.2,0.9-0.3,1.4-0.3c0.7,0,1.2,0.2,1.6,0.7c0.4,0.5,0.6,1.3,0.6,2.4v9h7.5V40.8c0-1.9-0.3-3.4-1-4.6c-0.6-1.2-1.5-2.1-2.7-2.6
		c-1.1-0.6-2.4-0.8-3.8-0.8C147.1,32.7,145.7,33.1,144.5,33.7L144.5,33.7z M167.3,51.1V33.1h-7.5v18.1H167.3L167.3,51.1z
		 M166.8,30.5c0.8-0.7,1.2-1.7,1.2-2.8c0-1.1-0.4-2-1.2-2.6c-0.8-0.7-1.9-1-3.3-1c-1.4,0-2.5,0.4-3.3,1.1c-0.8,0.7-1.2,1.6-1.2,2.7
		c0,1.1,0.4,2,1.2,2.7c0.8,0.7,1.9,1.1,3.3,1.1C164.9,31.6,166,31.2,166.8,30.5L166.8,30.5z M182.9,51.1l4-11.6h-2.2l3.8,11.6h7.3
		l6.3-18.1h-6.5l-4.9,14.7h3.3l-4.8-14.7h-6.3l-5,14.7h3.4l-4.8-14.7h-7.1l6.3,18.1H182.9L182.9,51.1z M218.2,50.7
		c1.3-0.5,2.4-1.2,3.3-2.2l-3.9-3.9c-0.6,0.4-1.2,0.8-1.7,1c-0.5,0.2-1.2,0.3-2.1,0.3c-0.8,0-1.5-0.1-2.1-0.4
		c-0.6-0.3-1-0.7-1.3-1.2c-0.3-0.5-0.5-1.2-0.5-2v-1.1c0-0.7,0.1-1.3,0.4-1.8c0.2-0.5,0.6-0.9,1-1.2c0.5-0.3,1-0.4,1.6-0.4
		c0.6,0,1.1,0.1,1.6,0.4c0.4,0.3,0.8,0.7,1,1.2c0.3,0.5,0.4,1.1,0.4,1.8l2.8-1h-9.9v3.6h13.9c0-0.3,0-0.6,0.1-0.9c0-0.3,0-0.6,0-0.9
		c0-2-0.5-3.8-1.4-5.1c-0.9-1.4-2.1-2.4-3.6-3.1c-1.5-0.7-3.2-1.1-4.9-1.1c-1.9,0-3.7,0.4-5.2,1.2c-1.6,0.8-2.8,1.9-3.7,3.3
		c-0.9,1.4-1.3,3-1.3,4.9c0,1.8,0.5,3.4,1.4,4.8c0.9,1.4,2.2,2.5,3.8,3.3c1.6,0.8,3.6,1.2,5.8,1.2C215.4,51.4,216.9,51.2,218.2,50.7
		L218.2,50.7z M233.3,51.1v-8c0-1.4,0.4-2.4,1.1-3c0.7-0.6,1.6-0.9,2.8-0.9c0.3,0,0.5,0,0.8,0c0.3,0,0.5,0.1,0.9,0.1v-6.6
		c-1.7,0-3.1,0.4-4.4,1.1c-1.2,0.7-2.1,1.8-2.6,3.2l1.2,1.6v-5.4h-7.1v18.1H233.3L233.3,51.1z M253.8,50.6c1.4-0.6,2.4-1.3,3.1-2.2
		c0.7-0.9,1-1.9,1-3c0-1-0.2-1.9-0.6-2.6c-0.4-0.7-0.9-1.2-1.5-1.6c-0.6-0.4-1.3-0.7-2-0.9c-0.7-0.2-1.5-0.4-2.2-0.5
		c-0.7-0.1-1.4-0.2-2-0.2c-0.6-0.1-1.1-0.2-1.5-0.3c-0.4-0.1-0.6-0.3-0.6-0.6c0-0.2,0.2-0.4,0.5-0.6c0.3-0.2,1-0.3,1.9-0.3
		c0.8,0,1.6,0.1,2.5,0.3c0.9,0.2,1.8,0.5,2.7,1l2-4.9c-0.9-0.5-2.1-0.9-3.4-1.1c-1.3-0.2-2.6-0.4-4-0.4c-2,0-3.7,0.3-5.1,0.8
		c-1.4,0.6-2.4,1.3-3.1,2.2c-0.7,0.9-1,2-1,3.1c0,1,0.2,1.9,0.6,2.6c0.4,0.7,0.9,1.2,1.5,1.6c0.6,0.4,1.3,0.7,2,0.9
		c0.7,0.2,1.5,0.3,2.2,0.4c0.7,0.1,1.4,0.2,2,0.2c0.6,0.1,1.1,0.2,1.5,0.3c0.4,0.1,0.6,0.3,0.6,0.6c0,0.3-0.2,0.5-0.5,0.6
		c-0.3,0.2-0.9,0.2-1.8,0.2c-1.1,0-2.2-0.1-3.3-0.4c-1.1-0.3-2.1-0.7-3-1.2l-2,4.9c0.9,0.5,2.1,1,3.6,1.3c1.5,0.3,3,0.5,4.6,0.5
		C250.7,51.4,252.4,51.2,253.8,50.6L253.8,50.6z M268,57.3c1.1-0.4,2-1,2.9-1.9c0.9-0.9,1.6-2.2,2.3-3.9l7.4-18.4h-7.1l-5.8,14.7
		l-0.5,0.7l-0.8,1.9c-0.2,0.6-0.5,1-0.9,1.2c-0.4,0.3-0.9,0.4-1.5,0.4c-0.4,0-0.9-0.1-1.4-0.3c-0.5-0.2-0.9-0.4-1.3-0.7l-2.5,5.1
		c0.6,0.5,1.4,0.9,2.5,1.2c1,0.3,2,0.4,3,0.4C265.8,57.8,266.9,57.6,268,57.3L268,57.3z M271.4,47.1L266,33.1h-7.7l7.9,18.9
		L271.4,47.1L271.4,47.1z M294.2,51.2c0.8-0.2,1.5-0.4,2.1-0.7l-1.8-5.2c-0.5,0.3-1,0.5-1.7,0.5c-0.4,0-0.8-0.2-1.1-0.5
		c-0.3-0.3-0.4-0.7-0.4-1.3V29h-7.5v15.1c0,2.5,0.7,4.3,2.1,5.5c1.4,1.2,3.3,1.8,5.8,1.8C292.5,51.4,293.4,51.4,294.2,51.2
		L294.2,51.2z M294.9,39.5V34h-13.6v5.4H294.9L294.9,39.5z M312.9,50.7c1.3-0.5,2.4-1.2,3.3-2.2l-3.9-3.9c-0.6,0.4-1.2,0.8-1.7,1
		c-0.5,0.2-1.2,0.3-2.1,0.3c-0.8,0-1.5-0.1-2.1-0.4c-0.6-0.3-1-0.7-1.3-1.2c-0.3-0.5-0.5-1.2-0.5-2v-1.1c0-0.7,0.1-1.3,0.4-1.8
		c0.2-0.5,0.6-0.9,1-1.2c0.5-0.3,1-0.4,1.6-0.4c0.6,0,1.1,0.1,1.6,0.4c0.4,0.3,0.8,0.7,1,1.2s0.4,1.1,0.4,1.8l2.8-1h-9.9v3.6h13.9
		c0-0.3,0-0.6,0.1-0.9c0-0.3,0-0.6,0-0.9c0-2-0.5-3.8-1.4-5.1c-0.9-1.4-2.1-2.4-3.6-3.1c-1.5-0.7-3.2-1.1-4.9-1.1
		c-1.9,0-3.7,0.4-5.2,1.2c-1.6,0.8-2.8,1.9-3.7,3.3c-0.9,1.4-1.3,3-1.3,4.9c0,1.8,0.5,3.4,1.4,4.8c0.9,1.4,2.2,2.5,3.8,3.3
		c1.6,0.8,3.6,1.2,5.8,1.2C310,51.4,311.6,51.2,312.9,50.7L312.9,50.7z M331.7,51.2c0.8-0.2,1.5-0.4,2.1-0.7l-1.8-5.2
		c-0.5,0.3-1,0.5-1.7,0.5c-0.4,0-0.8-0.2-1.1-0.5c-0.3-0.3-0.4-0.7-0.4-1.3V29h-7.5v15.1c0,2.5,0.7,4.3,2.1,5.5
		c1.4,1.2,3.3,1.8,5.8,1.8C330.1,51.4,330.9,51.4,331.7,51.2L331.7,51.2z M332.5,39.5V34h-13.6v5.4H332.5L332.5,39.5z"/>
	<path class="st0" d="M118.4,78.8c1.9,0,3.3-0.3,4.3-1c1-0.7,1.5-1.7,1.5-2.9c0-0.8-0.2-1.5-0.6-2.1c-0.4-0.6-0.9-1-1.6-1.3
		c-0.7-0.3-1.5-0.4-2.4-0.4l-0.4,0.8c0.8,0,1.6-0.2,2.2-0.5s1.1-0.7,1.5-1.3c0.4-0.6,0.6-1.2,0.6-2c0-1.1-0.5-2-1.4-2.7
		c-0.9-0.7-2.3-1-4.1-1h-7v14.3H118.4L118.4,78.8z M114.3,67h3.3c0.8,0,1.4,0.1,1.9,0.4c0.4,0.3,0.6,0.7,0.6,1.3
		c0,0.6-0.2,1-0.6,1.3c-0.4,0.3-1,0.4-1.9,0.4h-3.5v2.4h4.1c0.9,0,1.5,0.1,2,0.4c0.4,0.3,0.7,0.7,0.7,1.3c0,0.6-0.2,1.1-0.7,1.3
		c-0.4,0.3-1.1,0.4-2,0.4h-3.9V67L114.3,67z M129.6,78.8v-11h-3.2v11H129.6L129.6,78.8z M129.5,65.7c0.4-0.3,0.5-0.8,0.5-1.3
		c0-0.5-0.2-0.9-0.6-1.2c-0.4-0.3-0.8-0.5-1.4-0.5c-0.6,0-1.1,0.2-1.4,0.5c-0.4,0.3-0.6,0.8-0.6,1.3c0,0.5,0.2,0.9,0.6,1.3
		c0.4,0.3,0.8,0.5,1.4,0.5C128.7,66.3,129.1,66.1,129.5,65.7L129.5,65.7z M140.7,78.5c0.8-0.3,1.4-0.7,1.9-1.3l-1.7-1.8
		c-0.4,0.4-0.8,0.6-1.2,0.8c-0.4,0.2-1,0.3-1.5,0.3c-0.7,0-1.2-0.1-1.7-0.4c-0.5-0.2-0.9-0.6-1.1-1c-0.3-0.5-0.4-1-0.4-1.6v-0.5
		c0-0.6,0.1-1.1,0.3-1.5c0.2-0.4,0.6-0.8,1-1c0.4-0.2,0.9-0.4,1.4-0.4c0.5,0,1,0.1,1.4,0.4c0.4,0.2,0.7,0.6,1,1s0.3,0.9,0.3,1.5
		l1.2-0.6h-7.3v1.9h9c0-0.1,0-0.3,0-0.4c0-0.2,0-0.3,0-0.4c0-1.2-0.3-2.2-0.8-3.1c-0.5-0.9-1.2-1.5-2.1-2c-0.9-0.5-1.8-0.7-2.9-0.7
		c-1.1,0-2.1,0.2-3,0.7c-0.9,0.5-1.6,1.2-2.1,2c-0.5,0.9-0.8,1.8-0.8,2.9c0,1.1,0.3,2.1,0.8,2.9c0.5,0.9,1.3,1.5,2.2,2
		c0.9,0.5,2.1,0.7,3.3,0.7C139.1,79,140,78.8,140.7,78.5L140.7,78.5z M148.8,78.8V63.6h-3.2v15.2H148.8L148.8,78.8z M158.3,78.5
		c0.8-0.3,1.4-0.7,1.8-1.2c0.4-0.5,0.6-1.1,0.6-1.8c0-0.6-0.1-1.1-0.4-1.5c-0.2-0.4-0.6-0.7-1-0.9c-0.4-0.2-0.8-0.4-1.3-0.5
		c-0.5-0.1-1-0.2-1.4-0.3s-0.9-0.1-1.3-0.2c-0.4-0.1-0.7-0.2-1-0.3c-0.2-0.1-0.4-0.3-0.4-0.6c0-0.3,0.2-0.5,0.5-0.7
		c0.3-0.2,0.8-0.3,1.6-0.3c0.5,0,1,0.1,1.6,0.2c0.5,0.1,1.1,0.3,1.6,0.6l1.1-2.3c-0.5-0.3-1.2-0.6-1.9-0.7c-0.8-0.2-1.5-0.2-2.3-0.2
		c-1.1,0-2,0.2-2.7,0.5c-0.8,0.3-1.4,0.7-1.8,1.3c-0.4,0.5-0.6,1.1-0.6,1.8c0,0.6,0.1,1.1,0.4,1.5c0.2,0.4,0.6,0.7,1,0.9
		c0.4,0.2,0.8,0.4,1.3,0.5c0.5,0.1,1,0.2,1.4,0.3c0.5,0.1,0.9,0.1,1.3,0.2c0.4,0.1,0.7,0.2,1,0.3c0.2,0.1,0.4,0.3,0.4,0.6
		c0,0.3-0.2,0.6-0.5,0.7c-0.3,0.2-0.8,0.3-1.6,0.3c-0.7,0-1.3-0.1-2-0.3c-0.7-0.2-1.3-0.5-1.8-0.8l-1.1,2.3c0.5,0.3,1.2,0.6,2.1,0.9
		c0.9,0.2,1.8,0.3,2.7,0.3C156.5,79,157.5,78.8,158.3,78.5L158.3,78.5z M167.7,74.2l1.7-1.4l4.9-5h-3.8l-5.1,4.9l-0.1,3.9
		L167.7,74.2L167.7,74.2z M165.8,78.8V63.6h-3.2v15.2H165.8L165.8,78.8z M174.7,78.8l-5.6-7.1l-2,2.5l3.7,4.6H174.7L174.7,78.8z
		 M184,78.3c0.9-0.5,1.6-1.2,2.2-2c0.5-0.9,0.8-1.8,0.8-2.9c0-1.1-0.3-2.1-0.8-3c-0.5-0.8-1.2-1.5-2.2-2c-0.9-0.5-2-0.7-3.1-0.7
		c-1.2,0-2.2,0.2-3.1,0.7c-0.9,0.5-1.6,1.2-2.2,2c-0.5,0.9-0.8,1.8-0.8,2.9c0,1.1,0.3,2.1,0.8,2.9c0.5,0.9,1.2,1.5,2.2,2
		c0.9,0.5,2,0.7,3.1,0.7C182.1,79,183.1,78.7,184,78.3L184,78.3z M179.5,76c-0.4-0.2-0.8-0.6-1-1.1c-0.3-0.5-0.4-1-0.4-1.6
		c0-0.6,0.1-1.2,0.4-1.6c0.3-0.5,0.6-0.8,1-1c0.4-0.2,0.9-0.4,1.4-0.4s1,0.1,1.4,0.4c0.4,0.2,0.8,0.6,1,1c0.2,0.5,0.4,1,0.4,1.6
		c0,0.6-0.1,1.2-0.4,1.6c-0.2,0.5-0.6,0.8-1,1.1c-0.4,0.2-0.9,0.4-1.4,0.4S179.9,76.2,179.5,76L179.5,76z M194.7,74.3v-2.6h-5.8v2.6
		H194.7L194.7,74.3z M204.8,78.8c1.9,0,3.3-0.3,4.3-1c1-0.7,1.5-1.7,1.5-2.9c0-0.8-0.2-1.5-0.6-2.1c-0.4-0.6-0.9-1-1.6-1.3
		c-0.7-0.3-1.5-0.4-2.4-0.4l-0.4,0.8c0.8,0,1.6-0.2,2.2-0.5c0.6-0.3,1.1-0.7,1.5-1.3c0.4-0.6,0.6-1.2,0.6-2c0-1.1-0.5-2-1.4-2.7
		c-0.9-0.7-2.3-1-4.1-1h-7v14.3H204.8L204.8,78.8z M200.7,67h3.3c0.8,0,1.4,0.1,1.9,0.4c0.4,0.3,0.6,0.7,0.6,1.3
		c0,0.6-0.2,1-0.6,1.3c-0.4,0.3-1,0.4-1.9,0.4h-3.5v2.4h4.1c0.9,0,1.5,0.1,2,0.4c0.4,0.3,0.7,0.7,0.7,1.3c0,0.6-0.2,1.1-0.7,1.3
		c-0.4,0.3-1.1,0.4-2,0.4h-3.9V67L200.7,67z M216.1,78.8v-11h-3.2v11H216.1L216.1,78.8z M215.9,65.7c0.4-0.3,0.5-0.8,0.5-1.3
		c0-0.5-0.2-0.9-0.6-1.2c-0.4-0.3-0.8-0.5-1.4-0.5c-0.6,0-1.1,0.2-1.4,0.5c-0.4,0.3-0.6,0.8-0.6,1.3c0,0.5,0.2,0.9,0.6,1.3
		c0.4,0.3,0.8,0.5,1.4,0.5C215.1,66.3,215.6,66.1,215.9,65.7L215.9,65.7z M228.8,78.8v-6.3c0-1.7-0.5-2.9-1.4-3.7
		c-0.9-0.8-2.2-1.2-3.9-1.2c-0.9,0-1.7,0.1-2.6,0.3c-0.8,0.2-1.6,0.6-2.2,1l1.1,2.2c0.4-0.3,0.9-0.6,1.4-0.7
		c0.6-0.2,1.1-0.3,1.7-0.3c0.9,0,1.5,0.2,1.9,0.6c0.4,0.4,0.6,0.9,0.6,1.6v3.9l0.2,0.5v2.2H228.8L228.8,78.8z M224.8,78.4
		c0.6-0.4,1-0.9,1.3-1.6l-0.5-1.5c-0.2,0.5-0.5,0.9-0.9,1.1c-0.4,0.3-0.9,0.4-1.4,0.4c-0.6,0-1-0.1-1.3-0.4c-0.3-0.2-0.5-0.6-0.5-1
		c0-0.4,0.1-0.7,0.4-0.9c0.3-0.2,0.8-0.4,1.5-0.4h2.6v-1.9h-2.9c-1.1,0-2,0.1-2.7,0.4c-0.7,0.3-1.2,0.7-1.5,1.2
		c-0.3,0.5-0.5,1.1-0.5,1.7c0,0.6,0.2,1.2,0.5,1.7c0.3,0.5,0.8,0.9,1.4,1.2c0.6,0.3,1.4,0.4,2.2,0.4C223.4,79,224.2,78.8,224.8,78.4
		L224.8,78.4z M234.9,78.8V63.6h-3.2v15.2H234.9L234.9,78.8z M244.4,78.5c0.8-0.3,1.4-0.7,1.8-1.2c0.4-0.5,0.6-1.1,0.6-1.8
		c0-0.6-0.1-1.1-0.4-1.5c-0.2-0.4-0.6-0.7-1-0.9c-0.4-0.2-0.8-0.4-1.3-0.5c-0.5-0.1-1-0.2-1.4-0.3c-0.5-0.1-0.9-0.1-1.3-0.2
		c-0.4-0.1-0.7-0.2-1-0.3c-0.2-0.1-0.4-0.3-0.4-0.6c0-0.3,0.2-0.5,0.5-0.7c0.3-0.2,0.8-0.3,1.6-0.3c0.5,0,1,0.1,1.6,0.2
		c0.5,0.1,1.1,0.3,1.6,0.6l1.1-2.3c-0.5-0.3-1.2-0.6-1.9-0.7c-0.8-0.2-1.5-0.2-2.3-0.2c-1.1,0-2,0.2-2.7,0.5
		c-0.8,0.3-1.3,0.7-1.8,1.3c-0.4,0.5-0.6,1.1-0.6,1.8c0,0.6,0.1,1.1,0.4,1.5c0.2,0.4,0.6,0.7,1,0.9c0.4,0.2,0.8,0.4,1.3,0.5
		c0.5,0.1,1,0.2,1.4,0.3c0.5,0.1,0.9,0.1,1.3,0.2c0.4,0.1,0.7,0.2,1,0.3c0.2,0.1,0.4,0.3,0.4,0.6c0,0.3-0.2,0.6-0.5,0.7
		c-0.3,0.2-0.8,0.3-1.6,0.3c-0.7,0-1.3-0.1-2-0.3c-0.7-0.2-1.3-0.5-1.8-0.8l-1.1,2.3c0.5,0.3,1.2,0.6,2.1,0.9
		c0.9,0.2,1.8,0.3,2.7,0.3C242.7,79,243.6,78.8,244.4,78.5L244.4,78.5z M253.8,74.2l1.7-1.4l4.9-5h-3.8l-5.1,4.9l-0.1,3.9
		L253.8,74.2L253.8,74.2z M251.9,78.8V63.6h-3.2v15.2H251.9L251.9,78.8z M260.8,78.8l-5.6-7.1l-2,2.5l3.7,4.6H260.8L260.8,78.8z
		 M265.5,78.8v-11h-3.2v11H265.5L265.5,78.8z M265.3,65.7c0.4-0.3,0.5-0.8,0.5-1.3c0-0.5-0.2-0.9-0.6-1.2c-0.4-0.3-0.8-0.5-1.4-0.5
		c-0.6,0-1.1,0.2-1.4,0.5c-0.4,0.3-0.6,0.8-0.6,1.3c0,0.5,0.2,0.9,0.6,1.3c0.4,0.3,0.8,0.5,1.4,0.5C264.5,66.3,265,66.1,265.3,65.7
		L265.3,65.7z"/>
</g>
</svg>
